<svg xmlns="http://www.w3.org/2000/svg" xmlns:xlink="http://www.w3.org/1999/xlink" xmlns:fi="http://pattern.flaticon.com/" x="0" y="0" width="700" height="350" viewBox="0 0 700 350"><rect x="0px" y="0px" width="100%" height="100%" opacity="0.5" fill="#6867aa"/><defs><g transform="matrix(0.9375 0 0 0.9375 72.99999897003181 224)" id="L1_1"><path d="m7.8 43.428.032.079a11 11 0 0 0 8.483 6.456l.73.116a18.047 18.047 0 0 0 7.39-.379l-9.352-22.752a12.489 12.489 0 0 0 -7.283 16.48z" fill="#009b9e"/><path d="m17.048 47.079-.73-.116a11 11 0 0 1 -8.483-6.456l-.035-.079a12.447 12.447 0 0 1 -.843-3.3 12.39 12.39 0 0 0 .843 6.3l.032.079a11 11 0 0 0 8.483 6.456l.73.116a18.047 18.047 0 0 0 7.39-.379l-1.135-2.764a17.906 17.906 0 0 1 -6.252.143z" fill="#1991db"/><path d="m44.327 19.183-16.586 4.365 8.217 19.986 14.86-8.565z" fill="#dd100b"/><path d="m15.945 26.652c-.3.084-.577.193-.862.3l9.355 22.748a18.062 18.062 0 0 0 3.742-1.418l-9.22-22.423z" fill="#fcdc24"/><path d="m35.958 43.534-8.217-19.986-3.903 1.027 8.65 21.038 1.221-.783z" fill="#009b9e"/><path d="m18.96 25.859 9.22 22.423q.739-.382 1.446-.835l2.862-1.834-8.65-21.038z" fill="#dd100b"/><path d="m51.168 14.785a2 2 0 0 0 -3.7 1.521l6.845 16.648.761 1.85a2 2 0 1 0 3.7-1.522z" fill="#fcdc24"/><path d="m24 39a11 11 0 1 0 11 11 11 11 0 0 0 -11-11zm4.95 15.95a7 7 0 0 1 -9.9 0 7 7 0 0 1 0-9.9 7 7 0 0 1 9.9 9.9z" fill="#c97135"/><path d="m21.879 47.879a3 3 0 0 0 0 4.242 3 3 0 0 0 4.242 0 3 3 0 1 0 -4.242-4.242z" fill="#c97135"/><path d="m24 59a11 11 0 0 1 -10.95-10c-.029.33-.05.662-.05 1a11 11 0 0 0 22 0c0-.338-.021-.67-.05-1a11 11 0 0 1 -10.95 10z" fill="#c66320"/><path d="m48.229 18.156-3.902 1.027-12.149 9.898 15.394-2.005-12.352 9.404 15.598-1.511 3.496-2.015z" fill="#fcdc24"/><path d="m54.314 32.954-6.085-14.798-2.046.538 6.298 15.316z" fill="#f2c714"/><path d="m7.3 35.461a12.546 12.546 0 0 1 1.71-3.754l.013-.029-3.389-1.414-1.634 3.915 3.265 1.363z" fill="#009b9e"/><path d="m52.093 14.405a3 3 0 1 0 -5.549 2.281l.327.794-2.82.742h-.008l-28.371 7.468a13.5 13.5 0 0 0 -7 4.756l-2.65-1.105a1 1 0 0 0 -1.308.538l-.083.2-.042-.079a3.668 3.668 0 0 1 -.364-2.3 1 1 0 0 0 -1.973-.332 5.7 5.7 0 0 0 .563 3.554l.811 1.552-.549 1.326a1 1 0 0 0 .538 1.3l2.507 1.046a13.494 13.494 0 0 0 .756 7.659 13.355 13.355 0 0 0 5.122 6.174v.021a12 12 0 1 0 23.008-4.764l18.816-10.845.326.793a3 3 0 0 0 2.778 1.859 2.963 2.963 0 0 0 1.137-.226 3 3 0 0 0 1.635-3.917zm-20.554 13.895a1.566 1.566 0 0 0 -.248.37.974.974 0 0 0 .362 1.254 2.724 2.724 0 0 0 1.655.018l3.57-.465 6.9-.9.207-.027c-1.6 1.218-8.609 6.3-9.366 7.141a1.011 1.011 0 0 0 .322 1.728c.747.215 11.06-.829 11.379-1.013l-9.871 5.694c-.131 0-6.332-15.4-7.345-17.875l10.962-2.885q-3.931 3.285-7.959 6.454a4.149 4.149 0 0 0 -.568.506zm-10.656 10.125-4.467-10.863 1.952-.514 4.526 11.008a11.911 11.911 0 0 0 -2.011.369zm4.172-.372-4.736-11.518 2.927-.77 5.419 13.179a11.93 11.93 0 0 0 -3.61-.891zm-19.747-4.411.864-2.071 1.394.582c-.116.209-.242.411-.347.627a13.554 13.554 0 0 0 -.585 1.42zm3.42 9.406a11.47 11.47 0 0 1 5.81-14.8l4.462 10.852a12.033 12.033 0 0 0 -6.772 8.584 11.392 11.392 0 0 1 -3.5-4.636zm15.272 16.952a10 10 0 1 1 10-10 10.011 10.011 0 0 1 -10 10zm7.539-19.323-6.339-15.426 1.952-.513 7.548 18.367-.644.37a12.054 12.054 0 0 0 -2.517-2.798zm18.968-6.683-11.883 1.151 9.554-7.273a1 1 0 0 0 -.735-1.787l-11.908 1.551 9.255-7.536 2.848-.749 5.419 13.179zm6.8.974a1 1 0 0 1 -1.3-.544l-7.606-18.5a1 1 0 0 1 .545-1.3 1 1 0 0 1 1.3.544l7.6 18.5a1 1 0 0 1 -.541 1.3z" fill="#000000"/><path d="m29.657 44.343c-.007-.007-.016-.009-.022-.015a7.984 7.984 0 0 0 -11.27 0c-.006.006-.015.008-.022.015s-.008.015-.014.022a7.981 7.981 0 0 0 0 11.27c.006.007.008.016.014.022s.016.009.022.015a7.984 7.984 0 0 0 11.27 0c.006-.006.015-.008.022-.015s.008-.015.014-.022a7.981 7.981 0 0 0 0-11.27c-.006-.007-.008-.016-.014-.022zm-.772 9.128-1.452-1.452a3.915 3.915 0 0 0 .425-1.019h2.052a5.964 5.964 0 0 1 -1.025 2.471zm-10.795-2.471h2.052a3.915 3.915 0 0 0 .425 1.019l-1.452 1.452a5.964 5.964 0 0 1 -1.025-2.471zm1.025-4.471 1.452 1.452a3.915 3.915 0 0 0 -.425 1.019h-2.052a5.964 5.964 0 0 1 1.025-2.471zm4.885 5.471a2 2 0 1 1 2-2 2 2 0 0 1 -2 2zm2.019-5.433a3.915 3.915 0 0 0 -1.019-.425v-2.052a5.964 5.964 0 0 1 2.471 1.025zm-3.019-.425a3.915 3.915 0 0 0 -1.019.425l-1.452-1.452a5.964 5.964 0 0 1 2.471-1.025zm-1.019 7.291a3.915 3.915 0 0 0 1.019.425v2.052a5.964 5.964 0 0 1 -2.471-1.025zm3.019.425a3.915 3.915 0 0 0 1.019-.425l1.452 1.452a5.964 5.964 0 0 1 -2.471 1.025zm2.858-4.858a3.915 3.915 0 0 0 -.425-1.019l1.452-1.452a5.964 5.964 0 0 1 1.025 2.471z" fill="#000000"/><path d="m56.092 16.737-.646.431a1 1 0 1 0 1.108 1.664l.646-.432a2.456 2.456 0 0 1 3.091.306 1 1 0 0 0 1.414-1.414 4.463 4.463 0 0 0 -5.613-.555z" fill="#000000"/><path d="m53.072 12.629a1 1 0 1 0 1.856.742l.425-1.06a7.426 7.426 0 0 0 -1.646-8.018 1 1 0 0 0 -1.414 1.414 5.43 5.43 0 0 1 1.2 5.861z" fill="#000000"/><path d="m47 3a1 1 0 0 0 -2 0v1a1 1 0 0 0 2 0z" fill="#000000"/><path d="m48 7h1a1 1 0 0 0 0-2h-1a1 1 0 0 0 0 2z" fill="#000000"/><path d="m46 10a1 1 0 0 0 1-1v-1a1 1 0 0 0 -2 0v1a1 1 0 0 0 1 1z" fill="#000000"/><path d="m44 5h-1a1 1 0 0 0 0 2h1a1 1 0 0 0 0-2z" fill="#000000"/><path d="m39 3a1 1 0 0 0 0 2h1a1 1 0 0 0 0-2z" fill="#000000"/><path d="m60 21h-1a1 1 0 0 0 0 2h1a1 1 0 0 0 0-2z" fill="#000000"/><path d="m59.293 10.293-1 1a1 1 0 1 0 1.414 1.414l1-1a1 1 0 0 0 -1.414-1.414z" fill="#000000"/></g><g transform="matrix(0.9375 0 0 0.9375 297 287)" id="L1_4"><path d="m28.1 21.567-6.32-1.145-3.391-.615-3.124-.567-1.325-.24s1.733-4.446 2.06-6.039c.873-4.257-.566-9.785-.576-9.821a14.118 14.118 0 0 0 -12.4 13 14.554 14.554 0 0 0 .906 6 13.774 13.774 0 0 0 4.633 5.966l6.437 4.894-6 3 4 9 1.958-.653a2 2 0 0 0 1.308-1.412l.334-1.335a2 2 0 0 1 2.046-1.512l.992.052a15.545 15.545 0 0 0 16.362-15.524v-1.616z" fill="#a2a2a3"/><path d="m16 12.961c-.327 1.593-2.06 6.039-2.06 6.039l22.06 4v-.333l-3.3-3.9-13.06-2.427c1.54-4.384.027-13.114 0-13.257-.767-.046-1.54-.083-2.309-.083a14.508 14.508 0 0 0 -1.907.14c.01.036 1.449 5.56.576 9.821z" fill="#dd100b"/><path d="m48.331 53h-32.662a18.255 18.255 0 0 1 -3.669 8h40a18.255 18.255 0 0 1 -3.669-8z" fill="#dd100b"/><path d="m48.331 53h2.669v-4h-4v4z" fill="#fcdc24"/><path d="m29 49h6v4h-6z" fill="#dd100b"/><path d="m41 53v-4h-2-4v4z" fill="#fcdc24"/><path d="m41 49h6v4h-6z" fill="#dd100b"/><path d="m17 49h6v4h-6z" fill="#dd100b"/><path d="m23 49h6v4h-6z" fill="#fcdc24"/><path d="m17 49h-4v4h2.669 1.331z" fill="#fcdc24"/><path d="m32.7 18.763-1.517-13.456-2.745-.707a39.293 39.293 0 0 0 -8.795-1.532s1.553 8.85 0 13.27z" fill="#fcdc24"/><path d="m60.2 13.984a7.881 7.881 0 0 0 -1.843-2.367l-7.357-6.617-2 3 5.919 5.919a2.42 2.42 0 0 1 .513 2.491 2.1 2.1 0 0 1 -3.65.263l-5.175-7.762a2.646 2.646 0 0 0 -1.68-1.126l-2.54-.508c-.874-.175-2.749-.7-2.749-.7l-.768-.575a7.357 7.357 0 0 0 -11.384 3.545l-.735 2.181 9.249 10.939v1.949a15.535 15.535 0 0 1 -7.9 13.541l.9 10.843h10v-1.438a2 2 0 0 0 -1.515-1.941l-.344-.086a2 2 0 0 1 -1.4-2.613l2.913-6.473.207-5.178 4.074-4.335a23.427 23.427 0 0 0 3.187 1.153c0-.175.219-1.909.219-1.909l3.951-.041a10.315 10.315 0 0 0 9.166-4.084 7.733 7.733 0 0 0 .742-8.071z" fill="#a2a2a3"/><path d="m54.982 29.628a14.131 14.131 0 0 1 -5.792-4.843l-3.012-4.363-2.3 2.775 1.78 2.2a14.144 14.144 0 0 0 11.518 5.23z" fill="#fecaa5"/><g fill="#898989"><path d="m45.656 25.394-1.78-2.2a6.22 6.22 0 0 0 .148 4.181 9.415 9.415 0 0 0 2.1.711c0-.175.219-1.909.219-1.909h.03c-.243-.255-.492-.506-.717-.783z"/><path d="m52 24.251a6.751 6.751 0 0 1 -5.006-2.651l2.2 3.181a14.031 14.031 0 0 0 1.068 1.354h.035a10.315 10.315 0 0 0 9.166-4.084 7.825 7.825 0 0 0 .608-.959 13.244 13.244 0 0 1 -8.071 3.159z"/><path d="m37.581 27.494a5.041 5.041 0 0 0 -1.581-4.494v1.616a15.535 15.535 0 0 1 -7.9 13.541l.162 1.942a17.256 17.256 0 0 0 9.319-12.605z"/><path d="m38.914 47h-10.081l.167 2h10v-1.438a2.017 2.017 0 0 0 -.086-.562z"/><path d="m5.244 24.651a14.835 14.835 0 0 0 3.318 3.458l6.438 4.891 4-2s-8.756-.349-13.756-6.349z"/></g><path d="m33.337 22.517 2.663.483v-.333l-3.3-3.9-5.949-7.035.735-2.181a7.348 7.348 0 0 1 3.7-4.23v-.01l-2.748-.711c-.071-.022-.145-.037-.216-.058a7.5 7.5 0 0 0 -1.587 1.549 7.6 7.6 0 0 0 -1.335 3.275l-.552 3.192 8.252 9.282z" opacity="0.15"/><path d="m49.028 55.586a18.408 18.408 0 0 1 -.7-2.586h-32.659a18.408 18.408 0 0 1 -.7 2.586z" opacity="0.15"/><path d="m45.914 16.068a1 1 0 0 0 1-1v-.154a1 1 0 0 0 -2 0v.154a1 1 0 0 0 1 1z"/><path d="m35 56h-1a1 1 0 0 0 0 2h1a1 1 0 0 0 0-2z"/><path d="m30 56h-1a1 1 0 0 0 0 2h1a1 1 0 0 0 0-2z"/><path d="m2.286 35.7a1 1 0 0 0 1.414.014c.116-.114.213-.239.322-.358l.3.322a1 1 0 1 0 1.47-1.356l-.57-.617a8.715 8.715 0 0 0 .912-6.1l-.086-.4a16.64 16.64 0 0 0 1.913 1.707l5.157 3.917-4.565 2.271a1 1 0 0 0 -.467 1.3l4 9a1 1 0 0 0 .914.6 1.024 1.024 0 0 0 .316-.051l1.959-.653a2.987 2.987 0 0 0 1.961-2.118l.334-1.337a.989.989 0 0 1 1.023-.756l.992.052a16.407 16.407 0 0 0 7.636-1.429l.692 8.292h-14.913a1 1 0 0 0 -1 1v4a1 1 0 0 0 1 1h1.413a17.271 17.271 0 0 1 -3.194 6.375 1 1 0 0 0 .781 1.625h40a1 1 0 0 0 .781-1.625 17.271 17.271 0 0 1 -3.194-6.375h1.413a1 1 0 0 0 1-1v-4a1 1 0 0 0 -1-1h-11v-.438a3 3 0 0 0 -2.273-2.911l-.344-.086a.988.988 0 0 1 -.639-.5.977.977 0 0 1 -.09-.734l2.913-6.474a.987.987 0 0 0 .087-.37l.193-4.806 3.345-3.559c2.906 1.192 3.041 1.1 3.481.807a1.066 1.066 0 0 0 .431-.7 15.222 15.222 0 0 0 9.548 3.4c.186 0 .373 0 .559-.01a1 1 0 0 0 .376-1.91l-2.191-1a13.129 13.129 0 0 1 -2.668-1.645 11.226 11.226 0 0 0 7.531-4.418 8.73 8.73 0 0 0 .834-9.111 8.847 8.847 0 0 0 -2.072-2.67l-7.352-6.608a1 1 0 0 0 -1.5.188l-2 3a1 1 0 0 0 .125 1.262l5.919 5.919a1.461 1.461 0 0 1 .315 1.358 1.087 1.087 0 0 1 -.916.623 1.075 1.075 0 0 1 -1-.488l-5.173-7.763a3.621 3.621 0 0 0 -2.316-1.551l-2.54-.505c-.674-.135-2.012-.5-2.5-.63l-.616-.461a8.367 8.367 0 0 0 -8.385-.958l-2.361-.611a40.361 40.361 0 0 0 -11.39-1.64 15.145 15.145 0 0 0 -15.306 14.085 15.5 15.5 0 0 0 .935 6.3l1.216 5.635a6.737 6.737 0 0 1 -1.876 6.266 1 1 0 0 0 -.014 1.414zm36.714 14.3h1v2h-4v-2zm3 2v-2h4v2zm-8 0h-4v-2h4zm-10 0v-2h4v2zm-6 0v-2h4v2zm-4-2h2v2h-2zm36.055 10h-3.364a.99.99 0 0 0 .259-.172 1 1 0 0 0 0-1.414l-.707-.707a1 1 0 0 0 -1.414 1.414l.707.707a.969.969 0 0 0 .258.172h-3.346a.958.958 0 0 0 .259-.172l.707-.707a1 1 0 0 0 -1.414-1.414l-.707.707a1 1 0 0 0 0 1.414.958.958 0 0 0 .259.172h-8.552v-1a1 1 0 0 0 -2 0v1h-8.309a.99.99 0 0 0 .259-.172 1 1 0 0 0 0-1.414l-.707-.707a1 1 0 0 0 -1.414 1.414l.707.707a.969.969 0 0 0 .258.172h-3.346a.958.958 0 0 0 .259-.172l.707-.707a1 1 0 0 0 -1.414-1.414l-.707.707a1 1 0 0 0 0 1.414.958.958 0 0 0 .259.172h-3.607a19.4 19.4 0 0 0 2.511-6h1.1a.958.958 0 0 0 -.259.172 1 1 0 0 0 0 1.414l.707.707a1 1 0 0 0 1.414-1.414l-.707-.707a.958.958 0 0 0 -.263-.172h3.346a.969.969 0 0 0 -.258.172l-.707.707a1 1 0 1 0 1.414 1.414l.707-.707a1 1 0 0 0 0-1.414.99.99 0 0 0 -.259-.172h8.309v1a1 1 0 0 0 2 0v-1h8.552a.958.958 0 0 0 -.259.172 1 1 0 0 0 0 1.414l.707.707a1 1 0 0 0 1.414-1.414l-.707-.707a.958.958 0 0 0 -.259-.172h3.346a.969.969 0 0 0 -.258.172l-.707.707a1 1 0 1 0 1.414 1.414l.707-.707a1 1 0 0 0 0-1.414.99.99 0 0 0 -.259-.172h.853a19.4 19.4 0 0 0 2.511 6zm-.055-8h-2v-2h2zm-3.567-27.235-1.265-1.565.936-1.128 2.263 3.277a15.129 15.129 0 0 0 2.852 3.1 13.152 13.152 0 0 1 -4.786-3.684zm-8.162-17.959.768.576a.971.971 0 0 0 .332.163c.077.022 1.92.533 2.82.713l2.539.508a1.633 1.633 0 0 1 1.045.7l5.175 7.763a3.1 3.1 0 0 0 5.386-.392 3.4 3.4 0 0 0 -.71-3.624l-5.339-5.34.9-1.356 6.494 5.843a6.884 6.884 0 0 1 1.619 2.062 6.736 6.736 0 0 1 -.637 7.033 9.359 9.359 0 0 1 -7.9 3.7c-.255-.306-.516-.606-.743-.935l-3.02-4.366a1 1 0 0 0 -1.592-.071l-2.3 2.775a1 1 0 0 0 -.007 1.268l1.78 2.2c.131.161.281.3.418.459-.014.108-.026.211-.038.3-.571-.216-1.3-.507-1.939-.774a1 1 0 0 0 -1.112.238l-2.239 2.383v-.127a1 1 0 1 0 -2-.08l-.312 7.788-2.859 6.373a3 3 0 0 0 2.1 3.919l.344.086a1 1 0 0 1 .758.971v.438h-8.082l-.776-9.3a16.8 16.8 0 0 0 2.7-2.085 16.4 16.4 0 0 0 5.157-12v-1.628l3.913-5.467a1 1 0 0 0 -1.626-1.165l-3.354 4.685-8.055-9.527.554-1.646a6.359 6.359 0 0 1 9.838-3.061zm-9.448-1.075a8.366 8.366 0 0 0 -2.285 3.5l-.734 2.18a1 1 0 0 0 .184.965l4.139 4.894-9.227-1.713c.834-3.676.261-8.966-.077-11.378a38.522 38.522 0 0 1 7.367 1.389zm-10.042-1.679c.328 2.236 1.1 8.582-.085 11.956a1 1 0 0 0 .761 1.315l12.71 2.359 1.6 1.9-18.467-3.351a47.371 47.371 0 0 0 1.676-5.069 24.851 24.851 0 0 0 -.328-9.13c.226-.011.451-.032.68-.032.487 0 .972.034 1.453.052zm-14.759 12.148a13.036 13.036 0 0 1 10.632-11.936 23.327 23.327 0 0 1 .367 8.5 59.971 59.971 0 0 1 -2.013 5.877 1 1 0 0 0 .753 1.347l.217.039-.283.918a1 1 0 0 0 1.912.588l.353-1.146 1.131.205-.308.971a1 1 0 1 0 1.906.605l.387-1.217 1.43.26-.249.843a1 1 0 0 0 1.919.566l.309-1.05 1.268.23-.231.974a1 1 0 0 0 .743 1.2 1.02 1.02 0 0 0 .235.026 1 1 0 0 0 .972-.77l.255-1.077 1.151.209-.247 1.028a1 1 0 1 0 1.944.467l.274-1.138 1.11.2-.259 1.1a1 1 0 0 0 .743 1.2 1.023 1.023 0 0 0 .231.026 1 1 0 0 0 .972-.77l.284-1.2 1.026.186-.256 1.125a1 1 0 0 0 .751 1.2 1.023 1.023 0 0 0 .225.026 1 1 0 0 0 .974-.777l.278-1.212.077.014v.781a14.545 14.545 0 0 1 -15.314 14.522l-.993-.052a3 3 0 0 0 -3.068 2.268l-.33 1.337a.993.993 0 0 1 -.654.705l-1.1.366-3.243-7.3 9.144-4.564a1 1 0 0 0 -.894-1.79l-3.444 1.722-5.941-4.518a12.76 12.76 0 0 1 -4.3-5.525 13.5 13.5 0 0 1 -.846-5.589z"/></g><g transform="matrix(0.1171875 0 0 0.1171875 181 159)" id="L1_5"><path d="m446.712 176c-17.664-55.496-67.608-72.6-119.824-81.6-11.105-1.327-22.041-3.807-32.632-7.4-32-12.8-94.608 5.088-118.464 12.8 7.096-5.267 8.578-15.288 3.312-22.384-5.267-7.096-15.288-8.578-22.384-3.312-4.08 3.028-6.479 7.814-6.464 12.895l-39.736 6.624c-5.244.873-9.84 4.002-12.576 8.56-3.284 5.463-9.193 8.804-15.568 8.8h-20.12v24l48 24h40c16.495 7.081 32.02 16.234 46.2 27.24 15.798 13.424 28.226 30.365 36.288 49.464 8.648 18.28 20 39.32 21.04 59.84.46 8.836-5.634 16.672-14.312 18.4l-1.68.336c-13.686 2.738-23.536 14.755-23.536 28.712l13.768-1.856h.056c29.298-19.289 67.75-17.219 94.808 5.104l11.608-19.2h-.24l2.056-.048c36.12-.896 76.24-12.568 99.808-41.6 24.16-29.799 21.648-74.631 10.592-109.375z" fill="#f2f2f2"/><g fill="#fc656d"><path d="m150.256 87.024-29.136-53.384-10.6 60.008z"/><path d="m232.4 447.6c-31.24-31.248-38.84-74.296-16.968-96.168-31.379 31.104-31.601 81.757-.497 113.136s81.757 31.601 113.136.497c.166-.165.332-.331.497-.497-21.872 21.872-64.92 14.272-96.168-16.968z"/><path d="m215.432 351.432c21.872-21.872 64.92-14.272 96.168 16.968s38.84 74.296 16.968 96.168c31.379-31.104 31.601-81.757.497-113.136s-81.757-31.601-113.136-.497c-.166.165-.332.331-.497.497z"/></g><path d="m255.032 424.968c-31.248-31.24-45.256-67.88-39.6-73.536-21.832 21.872-14.272 64.92 16.968 96.168s74.296 38.84 96.168 16.968c-5.656 5.656-42.296-8.352-73.536-39.6z" fill="#f9ed69"/><path d="m311.6 368.4c-31.248-31.2-74.296-38.84-96.168-16.968 5.656-5.656 42.296 8.352 73.536 39.6s45.256 67.88 39.6 73.536c21.872-21.872 14.272-64.92-16.968-96.168z" fill="#f9ed69"/><ellipse cx="271px" cy="407px" rx="23px" ry="79px" transform="matrix(0.707 -0.707 0.707 0.707 -208.842 311.778)" fill="#fc656d"/><g fill="#d8d8d8"><path d="m286.28 247.608c0-.2 0-.392 0-.584z"/><path d="m272 328c2.32 0 4.616.112 6.88.304 0-15 15.096-14.28 27.576-22.592l4-2.688s-21.248-23.928-23.944-50.328c.615 14.532 2.251 29.002 4.896 43.304l-10.4 8.128c-7.651 5.989-12.826 14.587-14.536 24.152 1.816-.128 3.656-.28 5.528-.28z"/></g><path d="m272 472c-41.085.001-75.491-31.121-79.6-72-.256 2.632-.4 5.296-.4 8 0 44.183 35.817 80 80 80s80-35.817 80-80c0-2.704-.144-5.368-.4-8-4.109 40.879-38.515 72.001-79.6 72z" opacity="0.1"/><path d="m113.224 32.248-9.744 55.2c-5.176 2.138-9.528 5.882-12.416 10.68-1.842 3.05-5.141 4.918-8.704 4.928h-20.104c-4.418 0-8 3.582-8 8v24c0 3.028 1.709 5.796 4.416 7.152l48 24c1.112.559 2.339.85 3.584.848h38.336c15.311 6.719 29.734 15.301 42.944 25.552 14.883 12.589 26.533 28.56 33.976 46.576l3.24 6.752c7.6 15.76 16.216 33.6 17.048 50.064.271 4.887-3.101 9.225-7.904 10.168l-1.672.336c-17.405 3.516-29.932 18.795-29.968 36.552.053 1.716.665 3.368 1.744 4.704-33.466 35.133-32.115 90.744 3.018 124.211 33.216 31.641 85.185 32.399 119.31 1.741 1.356-1.079 2.649-2.236 3.872-3.464.456-.456.8-.968 1.256-1.44 33.564-34.875 32.501-90.355-2.374-123.919-.009-.008-.017-.017-.026-.025l5.976-9.872c44.064-1.656 81.6-17.808 103.248-44.52 22.112-27.28 26.6-70.968 12-116.856-19.392-60.928-74.624-78.184-126.088-87.024l-5.336-.888c-8.753-1.108-17.364-3.141-25.688-6.064-27.784-11.104-73.92-1.888-106.976 7.488v-.056c.031-13.215-10.657-23.953-23.872-23.984-6.119-.014-12.01 2.316-16.464 6.512l-18.976-34.784 5.416-5.928c2.97-3.26 2.741-8.31-.512-11.288-3.262-2.975-8.317-2.746-11.296.512l-9.288 10.136c-.392.508-.836 1.173-1.234 1.998-.357.74-.589 1.426-.742 2.002zm11.808 25.256 12.8 23.48-17.472 2.912zm86.536 318.864c18.747 40.681 51.404 73.332 92.088 92.072-19.672 3.384-45.248-6.144-65.6-26.496s-29.864-45.904-26.488-65.576zm10.832-17.968c10.208 1.76 36.648 14.016 60.928 38.304s36.544 50.72 38.304 60.928c-10.208-1.76-36.648-14.016-60.928-38.304s-36.56-50.736-38.304-60.928zm110.032 81.232c-18.757-40.704-51.438-73.368-92.152-92.104 2.677-.462 5.388-.695 8.104-.696 21.979 1.339 42.602 11.077 57.6 27.2 20.296 20.368 29.824 45.968 26.448 65.6zm-132.232-27.632c11.731 31.359 36.486 56.09 67.856 67.792-36.569-2.049-65.773-31.225-67.856-67.792zm143.6-8c-11.73-31.343-36.457-56.07-67.8-67.8 36.55 2.077 65.723 31.25 67.8 67.8zm-185.544-316.992c.009-4.412 3.588-7.984 8-7.984 4.418 0 8 3.582 8 8s-3.582 8-8 8h-8c-4.418 0-8 3.582-8 8s3.582 8 8 8h8c4.701.001 9.297-1.391 13.208-4 20.184-6.4 82.224-24.424 111.824-12.568 9.396 3.382 19.134 5.726 29.04 6.992l5.208.864c49.08 8.432 96.8 23.488 113.552 76.104 4.856 15.264 18.552 67.728-9.184 101.928-27.152 33.496-74.632 38.208-93.6 38.68l-2.264.056c-3.224.057-6.083 2.087-7.2 5.112l-6.336 10.48c-9.036-6.001-19.108-10.271-29.704-12.592 2.147-1.124 4.352-2.131 6.608-3.016 4.695-1.771 9.198-4.015 13.44-6.696l4-2.688c3.685-2.438 4.695-7.402 2.256-11.086-.212-.321-.448-.626-.704-.914-.224-.248-22.4-25.6-22.224-50.64.027-4.415-3.529-8.017-7.944-8.048h-.056c-4.4 0-7.974 3.552-8 7.952 1.236 19.653 8.368 38.477 20.464 54.016-2.4 1.232-4.888 2.264-7.344 3.272-8.292 2.273-15.194 8.023-18.928 15.768h-.368c-16.463.008-32.589 4.666-46.52 13.44l-1 .136c2.93-5.9 8.423-10.114 14.88-11.416l1.68-.336c12.591-2.45 21.444-13.816 20.736-26.624-.976-19.704-10.352-39.12-18.576-56.24l-3.2-6.648c-8.485-20.287-21.734-38.231-38.624-52.312-14.735-11.427-30.865-20.933-48-28.288-.995-.429-2.068-.649-3.152-.648h-38.08l-41.888-20.984v-11.056h12.144c9.171-.032 17.661-4.844 22.4-12.696 1.528-2.556 4.103-4.311 7.04-4.8l39.728-6.624c.627-.081 2.871-.447 4.673-2.404 2.074-2.252 2.034-4.95 2.015-5.492z"/><path d="m168 272c0-4.418-3.582-8-8-8s-8 3.582-8 8v8c0 4.418 3.582 8 8 8s8-3.582 8-8z"/><path d="m176 304h8c4.418 0 8-3.582 8-8s-3.582-8-8-8h-8c-4.418 0-8 3.582-8 8s3.582 8 8 8z"/><path d="m136 304h8c4.418 0 8-3.582 8-8s-3.582-8-8-8h-8c-4.418 0-8 3.582-8 8s3.582 8 8 8z"/><path d="m168 312c0-4.418-3.582-8-8-8s-8 3.582-8 8v8c0 4.418 3.582 8 8 8s8-3.582 8-8z"/><path d="m88 208c0-4.418-3.582-8-8-8s-8 3.582-8 8v8c0 4.418 3.582 8 8 8s8-3.582 8-8z"/><path d="m96 240h8c4.418 0 8-3.582 8-8s-3.582-8-8-8h-8c-4.418 0-8 3.582-8 8s3.582 8 8 8z"/><path d="m48 232c0 4.418 3.582 8 8 8h8c4.418 0 8-3.582 8-8s-3.582-8-8-8h-8c-4.418 0-8 3.582-8 8z"/><path d="m80 240c-4.418 0-8 3.582-8 8v8c0 4.418 3.582 8 8 8s8-3.582 8-8v-8c0-4.418-3.582-8-8-8z"/></g><g transform="matrix(0.1171875 0 0 0.1171875 180.99999822616576 -9.99999962806703)" id="L1_12"><path d="m214 338.952c-21.064-6.655-43.535 5.024-50.192 26.088l-24.112 76.28c-6.658 21.071 5.025 43.55 26.096 50.208s43.55-5.025 50.208-26.096l24.12-76.28c6.655-21.065-5.027-43.537-26.093-50.191-.009-.003-.018-.006-.027-.009z" fill="#f44d5d"/><path d="m181.832 342.528c-8.995-2.688-16.586-8.778-21.16-16.976-12.106 2.644-22.298 10.76-27.584 21.968l-34.192 72.328c-9.441 19.971-.906 43.813 19.064 53.256 8.345 3.963 17.807 4.902 26.768 2.656l.064-.184c-6.829-10.041-8.694-22.652-5.064-34.24l24.112-76.28c3.14-9.736 9.954-17.864 18.992-22.656z" fill="#ef304c"/><path d="m240.088 367.768-24.088 76.28c-6.701 21.051-29.198 32.683-50.249 25.982-12.784-4.07-22.676-14.277-26.343-27.182-5.765 21.289 6.819 43.221 28.108 48.987 20.622 5.585 41.986-6.05 48.484-26.403l24.12-76.28c2.35-7.441 2.461-15.408.32-22.912-.176.504-.192 1.016-.352 1.528z" fill="#ef304c"/><ellipse cx="207px" cy="394px" rx="39px" ry="22px" transform="matrix(0.344 -0.939 0.939 0.344 -234.037 453.55)" fill="#f7667b"/><path d="m447.544 158.48c-6.15-2.421-13.1.587-15.544 6.728l-17.064 42.952c-15.2-.602-29.13 8.44-34.768 22.568l-20.64 52.064c-.824 2.07-1.453 4.213-1.88 6.4l.12.168c17.759 4.415 30.242 20.34 30.288 38.64 0 1.184-.248 2.296-.352 3.456l.176.248c16.493 2.359 32.45-6.906 38.576-22.4l20.64-52.056c5.579-14.154 1.63-30.287-9.856-40.264l17.032-42.952c2.426-6.152-.583-13.108-6.728-15.552z" fill="#f44d5d"/><ellipse cx="415px" cy="255px" rx="30px" ry="19px" transform="matrix(0.344 -0.939 0.939 0.344 32.609 558.323)" fill="#f7667b"/><path d="m178.4 171.352c.8.368 1.52.744 2.312 1.064 1.787.679 3.614 1.246 5.472 1.696 1.38.409 2.783.74 4.2.992 21.896 2.895 41.994-12.505 44.896-34.4l8.392-63.448c2.896-21.901-12.511-42.004-34.412-44.9s-42.004 12.511-44.9 34.412l-8.36 63.44c-2.081 15.808 5.425 31.343 19.104 39.536 1.068.597 2.168 1.134 3.296 1.608z" fill="#f44d5d"/><path d="m156 130.208 8.384-63.448c2.01-14.884 12.216-27.375 26.4-32.312v-.192c-16.436-14.761-41.726-13.404-56.487 3.031-6.59 7.337-10.237 16.851-10.241 26.713v64c0 22.091 17.909 40 40 40 2.537-.001 5.068-.239 7.56-.712-11.517-8.635-17.486-22.807-15.616-37.08z" fill="#ef304c"/><ellipse cx="142px" cy="56px" rx="8px" ry="4px" transform="matrix(0.251 -0.968 0.968 0.251 51.969 181.062)" fill="#ffffff"/><ellipse cx="207px" cy="99px" rx="44px" ry="22px" transform="matrix(0.131 -0.991 0.991 0.131 81.873 292.062)" fill="#f7667b"/><path d="m422.984 445.064-17.856-77.984c-2.548-10.99-9.648-20.378-19.528-25.824-5.576 15.975-20.624 26.695-37.544 26.744h-21.048c-1.174 5.589-1.128 11.366.136 16.936l17.856 77.984c4.931 21.535 26.385 34.995 47.92 30.064s34.995-26.385 30.064-47.92z" fill="#ef304c"/><g fill="#f44d5d"><path d="m461.472 437.768-27.92-74.968c-7.045-18.92-27.085-29.625-46.728-24.96l-.2.2c-3.688 14.226-14.903 25.269-29.184 28.736l-.152.152c-2.007 7.88-1.555 16.185 1.296 23.8l27.92 74.968c7.712 20.702 30.746 31.232 51.448 23.52s31.232-30.746 23.52-51.448z"/><path d="m181.832 342.528.304-.048c8.763-5.006 19.105-6.485 28.92-4.136l.488-.072c10.293-6.627 16.513-18.03 16.512-30.272v-56c.002-12.178-6.154-23.532-16.36-30.176l-.064.048c-2.962 24.033-23.361 42.096-47.576 42.128h-8v44c-.005 15.948 10.484 29.999 25.776 34.528z"/><path d="m62.84 200h-10.784c-8.837 0-16 7.163-16 16s7.163 16 16 16h10.784c6.776 19.165 24.889 31.984 45.216 32h56c26.27.241 47.762-20.859 48.003-47.129.165-17.989-9.832-34.532-25.835-42.751-1.863-.43-3.692-.997-5.472-1.696-.8-.304-1.536-.712-2.312-1.064-1.112-.536-2.272-.976-3.32-1.6-4.265-1.15-8.662-1.742-13.08-1.76h-53.984c-20.327.016-38.44 12.835-45.216 32z"/></g><path d="m364.056 280h-3.424l-1.104 2.792c-.824 2.07-1.453 4.213-1.88 6.4l.12.168c17.759 4.415 30.242 20.34 30.288 38.64 0 1.184-.248 2.296-.352 3.456l.176.248c4.87.66 9.824.309 14.552-1.032 1.019-3.467 1.557-7.058 1.6-10.672 0-22.082-17.894-39.987-39.976-40z" fill="#ef304c"/><path d="m211.696 221.824-.064.048c-2.962 24.033-23.361 42.096-47.576 42.128h-8v16h19.944c25.262-.007 46.196-19.594 47.88-44.8-2.862-5.419-7.055-10.022-12.184-13.376z" fill="#ef304c"/><path d="m348.056 288h-96c-8.431-.011-16.648 2.649-23.472 7.6l-.528.904v11.496c.001 12.242-6.219 23.645-16.512 30.272l-.488.072c.984.224 1.968.304 2.944.608 12.848 4.066 22.776 14.34 26.4 27.32 3.779 1.146 7.707 1.729 11.656 1.728h96c22.091 0 40-17.909 40-40s-17.909-40-40-40z" fill="#f44d5d"/><g fill="#ef304c"><path d="m236.184 338.952c-.984-.304-1.968-.384-2.952-.608l.496-.072c10.29-6.629 16.507-18.032 16.504-30.272v-19.856c-7.79.315-15.317 2.907-21.648 7.456l-.528.904v11.496c.001 12.242-6.219 23.645-16.512 30.272l-.488.072c.984.224 1.968.304 2.944.608 12.848 4.066 22.776 14.34 26.4 27.32 3.779 1.146 7.707 1.729 11.656 1.728h10.864c-3.151-13.728-13.316-24.772-26.736-29.048z"/><path d="m235.312 125.24c-5.712 43.256-70.768 45.48-78.928 2.12l-.376 2.848c-2.64 21.933 13.001 41.853 34.934 44.493 21.571 2.596 41.27-12.501 44.37-34.005l8.392-63.448c.478-4.044.329-8.137-.44-12.136z"/><path d="m176 248h-56c-20.324-.02-38.433-12.838-45.208-32h-10.792c-8.598-.025-15.639-6.84-15.944-15.432-8.524 2.331-13.544 11.13-11.214 19.653 1.88 6.877 8.085 11.681 15.214 11.779h10.784c6.776 19.165 24.889 31.984 45.216 32h56c18.71-.021 35.703-10.913 43.536-27.904-8.732 7.679-19.964 11.911-31.592 11.904z"/><path d="m182.136 342.48c8.763-5.006 19.105-6.485 28.92-4.136l.488-.072c5.736-3.718 10.297-8.989 13.152-15.2-17.538-12.693-42.046-8.765-54.738 8.774-.682.943-1.322 1.915-1.918 2.914 3.959 3.595 8.671 6.26 13.792 7.8z"/><path d="m437.952 469.472c-20.701 7.712-43.735-2.818-51.448-23.519v-.001l-27.92-74.968c-.472-1.361-.87-2.747-1.192-4.152l-.104.096c-2.007 7.88-1.555 16.185 1.296 23.8l27.92 74.968c7.636 20.669 30.581 31.234 51.25 23.598 19.119-7.063 29.839-27.401 24.862-47.166-3.27 12.591-12.476 22.797-24.664 27.344z"/></g><ellipse cx="423px" cy="248px" rx="12px" ry="8px" transform="matrix(0.344 -0.939 0.939 0.344 45.188 560.709)" fill="#ffffff"/><ellipse cx="217px" cy="383px" rx="12px" ry="8px" transform="matrix(0.344 -0.939 0.939 0.344 -216.731 455.998)" fill="#ffffff"/><ellipse cx="219px" cy="76px" rx="12px" ry="8px" transform="matrix(0.251 -0.968 0.968 0.251 90.187 270.3)" fill="#ffffff"/><ellipse cx="411px" cy="388px" rx="22px" ry="39px" transform="matrix(0.937 -0.35 0.35 0.937 -109.964 168.456)" fill="#f7667b"/><ellipse cx="410px" cy="368px" rx="8px" ry="12px" transform="matrix(0.937 -0.35 0.35 0.937 -102.973 166.762)" fill="#ffffff"/><ellipse cx="143px" cy="211px" rx="48px" ry="20px" fill="#f7667b"/><ellipse cx="166px" cy="211px" rx="11px" ry="6px" fill="#ffffff"/><path d="m57.504 192h-5.448c-13.255 0-24 10.745-24 24s10.745 24 24 24h5.448c9.277 19.516 28.943 31.965 50.552 32h40v36c.03 4.296.696 8.563 1.976 12.664-10.655 4.596-19.264 12.926-24.208 23.424l-34.2 72.328c-11.328 23.967-1.083 52.58 22.885 63.909 6.424 3.036 13.442 4.609 20.548 4.603 2.123-.008 4.242-.161 6.344-.456 5.791 6.862 13.404 11.948 21.96 14.672 12.143 3.892 25.338 2.76 36.64-3.144 11.321-5.839 19.832-15.97 23.632-28.128l24.12-76.28c1.595-5.082 2.328-10.396 2.168-15.72.728 0 1.448.16 2.176.16h67.312c.072 2.524.339 5.038.8 7.52l15.464 78.496c5.063 25.95 30.204 42.882 56.154 37.818.058-.011.116-.023.174-.034 4.235-.858 8.307-2.384 12.064-4.52 24.039 11.061 52.492.54 63.553-23.499 5.34-11.606 5.824-24.865 1.343-36.829l-27.913-74.984c-4.43-11.803-13.344-21.378-24.8-26.64 8.005-4.953 14.202-12.353 17.672-21.104l20.64-52.056c6.033-15.34 2.975-32.766-7.92-45.136l15.104-38.072c4.071-10.27-.954-21.897-11.224-25.968s-21.897.954-25.968 11.224l-15.088 38.072c-16.412 1.553-30.579 12.151-36.704 27.456l-20.68 52.08c-.08.144-.08.232-.08.344-1.296-.104-2.6-.2-3.92-.2h-96c-5.455.017-10.867.97-16 2.816v-30.816c.012-13.165-5.891-25.639-16.08-33.976 0-1.24.112-2.488.072-3.744-.438-11.909-4.769-23.347-12.328-32.56 18.883-4.857 32.936-20.677 35.536-40l8.392-63.448c3.451-26.284-15.059-50.389-41.343-53.84-5.997-.787-12.088-.434-17.953 1.04-21.123-15.783-51.042-11.453-66.824 9.67-6.223 8.329-9.557 18.461-9.496 28.858v64c.003 11.824 4.393 23.227 12.32 32h-20.32c-21.609.035-41.275 12.484-50.552 32zm12.896 37.328c-1.134-3.2-4.165-5.336-7.56-5.328h-10.784c-4.418 0-8-3.582-8-8s3.582-8 8-8h10.784c3.389.001 6.412-2.133 7.544-5.328 5.658-15.959 20.739-26.637 37.672-26.672h53.984c3.38.015 6.747.425 10.032 1.224l.096.048c3.625 2.043 7.504 3.601 11.536 4.632 12.053 6.645 19.751 19.111 20.296 32.864.68 22.081-16.668 40.533-38.749 41.213-.417.013-.834.019-1.251.019h-56c-16.906-.065-31.951-10.737-37.6-26.672zm35.712 193.92 34.192-72.32c3.486-7.306 9.638-13 17.192-15.912 2.719 3.523 5.956 6.614 9.6 9.168-4.982 5.229-8.713 11.52-10.912 18.4l-24.104 76.28c-3.095 9.739-2.971 20.216.352 29.88-17.575-1.378-30.705-16.743-29.326-34.318.305-3.891 1.321-7.693 2.998-11.218zm126.4-36.512-24.12 76.28c-5.168 16.901-23.058 26.412-39.958 21.245-16.901-5.168-26.412-23.058-21.245-39.958.058-.189.118-.378.179-.566l24.112-76.28c5.324-16.854 23.302-26.2 40.156-20.876 16.854 5.323 26.2 23.301 20.876 40.155zm132.4 92.576c-7.079-4.704-11.977-12.049-13.6-20.392l-15.464-78.488c-.259-1.465-.419-2.946-.48-4.432h12.8c-.142 5.969.838 11.912 2.888 17.52l27.928 74.976c2.217 5.808 5.552 11.124 9.816 15.648-8.288 1.639-16.888-.1-23.888-4.832zm61.136-113.712 27.928 74.968c6.17 16.569-2.259 35.002-18.828 41.172s-35.002-2.259-41.172-18.828l-27.896-74.976c-1.755-4.732-2.364-9.812-1.776-14.824 13.152-4.769 23.581-15.02 28.576-28.088 14.449-1.482 28.077 6.973 33.168 20.576zm-38.448-131.912c4.483-10.904 15.256-17.887 27.04-17.528 3.396.165 6.514-1.871 7.728-5.048l17.032-42.944c.81-2.054 3.13-3.063 5.184-2.256.991.39 1.786 1.158 2.208 2.136.42.976.434 2.078.04 3.064l-17.024 42.952c-1.242 3.152-.364 6.744 2.192 8.968 8.904 7.765 11.977 20.283 7.68 31.288l-20.664 52.08c-3.844 9.712-12.803 16.453-23.2 17.456-1.535-17.366-12.354-32.539-28.272-39.648zm-135.544 62.312h96c17.673 0 32 14.327 32 32s-14.327 32-32 32h-96c-1.843-.016-3.682-.19-5.496-.52-3.953-9.986-11.134-18.361-20.4-23.792 6.392-7.812 9.888-17.594 9.896-27.688v-7.624c4.851-2.851 10.373-4.361 16-4.376zm-32-44v56c-.045 8.496-3.981 16.503-10.68 21.728-9.531-1.5-19.293-.078-28 4.08-10.434-4.342-17.255-14.507-17.32-25.808v-36c22.66.013 43.089-13.651 51.728-34.6 2.757 4.373 4.237 9.43 4.272 14.6zm-40.832-89.12c-10.943-6.552-16.95-18.978-15.288-31.624l8.384-63.448c2.317-17.521 18.399-29.845 35.919-27.528h.001c17.521 2.313 29.85 18.391 27.537 35.913 0 .002-.001.005-.001.007l-8.392 63.448c-2.317 17.521-18.399 29.845-35.919 27.528 0 0 0 0-.001 0-1.986-.304-4.399-.847-7.039-1.839-2.028-.761-3.764-1.628-5.201-2.457zm-47.168-98.88c-.074-17.598 14.131-31.924 31.729-31.999 3.767-.016 7.508.636 11.047 1.927-10.137 7.708-16.764 19.155-18.4 31.784l-8.352 63.456c-1.315 9.938.535 20.038 5.288 28.864-12.729-4.511-21.257-16.527-21.312-30.032z"/><path d="m332.056 320h8c8.837 0 16 7.163 16 16 0 4.418 3.582 8 8 8s8-3.582 8-8c0-17.673-14.327-32-32-32h-8c-4.418 0-8 3.582-8 8s3.582 8 8 8z"/><path d="m170.8 437.064.8-2.536c1.396-4.197-.875-8.732-5.072-10.128s-8.732.875-10.128 5.072l-.776 2.528c-5.409 16.028-1.229 33.738 10.776 45.656 3.178 3.069 8.243 2.982 11.312-.196 2.994-3.1 2.994-8.015 0-11.116-7.702-7.642-10.383-19.001-6.912-29.28z"/></g><g transform="matrix(0.9375 0 0 0.9375 67 49)" id="L1_13"><path d="m19 40h22v6h-22z" fill="#fcdc24"/><path d="m19 44h22v2h-22z" fill="#f9d315"/><path d="m39.634 10.94a11.089 11.089 0 0 1 4.482-.94 10.77 10.77 0 0 1 8.746 4.254c3.566 5.016 4.016 16.846 4.138 18.746-4.925-3.447-12.035-12.582-14.542-1.874l-1.458 8.874h-7.6z" fill="#dd100b"/><path d="m42.363 11.241a9.974 9.974 0 0 0 -1.2-.83 11.064 11.064 0 0 0 -1.531.529l-6.2 28.912h2.1l4.761.148h.707l1.458-8.874c.638-2.724 1.574-4.159 2.7-4.735l.721-5.908a9.918 9.918 0 0 0 -3.516-9.242z" fill="#cc0202"/><path d="m40.228 11.389a9.917 9.917 0 0 0 -12.913.3l-.032.029a9.914 9.914 0 0 0 -3.251 8.162l1.609 20.12h7.759l1.3-8 5.941 14 1.817-14.874 1.282-10.5a9.916 9.916 0 0 0 -3.512-9.237z" fill="#5d9e25"/><circle cx="6" cy="36" r="4" fill="#5d9e25"/><circle cx="57" cy="37" r="4" fill="#3795db"/><circle cx="41" cy="50" r="4" fill="#dd100b"/><path d="m25.836 13.354a11.081 11.081 0 0 0 -7.951-3.354 11.26 11.26 0 0 0 -8.961 4.536c-3.507 4.771-2.353 12.623-1.815 18.07-.04-.411 5.641-4.887 6.99-5.425a4.569 4.569 0 0 1 4.647.806c1.765 1.531.254 12.013.254 12.013h6.641l-1.609-20.116a9.91 9.91 0 0 1 1.804-6.53z" fill="#3795db"/><path d="m25.836 13.354a11.05 11.05 0 0 0 -1.081-.957 9.909 9.909 0 0 0 -2.588 7.492l1.609 20.111h1.865l-1.609-20.116a9.91 9.91 0 0 1 1.804-6.53z" fill="#1089c6"/><path d="m32.378 26.658-.613 4.788a11.066 11.066 0 0 1 -5.609 8.269l-.515.285h7.759l1.3-8z" fill="#407c01"/><path d="m18.551 25.983.386-2.441-4.209 3.443a4.588 4.588 0 0 1 4.017 1c.663.575.864 2.413.856 4.484 2.154-3.579-1.05-6.486-1.05-6.486z" fill="#1089c6"/><path d="m6.947 39a4 4 0 0 1 -3.916-3.186 4.042 4.042 0 0 0 -.084.814 4 4 0 0 0 8 0 4.042 4.042 0 0 0 -.083-.814 4 4 0 0 1 -3.917 3.186z" fill="#407c01"/><path d="m41 52a3.992 3.992 0 0 1 -3.859-3 4 4 0 1 0 7.718 0 3.992 3.992 0 0 1 -3.859 3z" fill="#cc0202"/><path d="m57 39a3.992 3.992 0 0 1 -3.859-3 4 4 0 1 0 7.718 0 3.992 3.992 0 0 1 -3.859 3z" fill="#1089c6"/><path d="m57.946 32.1c-.538-8.99-1.973-15.191-4.269-18.42a11.8 11.8 0 0 0 -9.562-4.68 12.022 12.022 0 0 0 -4.364.827 10.936 10.936 0 0 0 -14.027 2.054 12.011 12.011 0 0 0 -7.839-2.881 12.332 12.332 0 0 0 -9.766 4.943c-3.464 4.712-2.698 12.078-2.139 17.457l.034.325a5.012 5.012 0 1 0 3 .368 39.637 39.637 0 0 1 5.451-3.981 3.572 3.572 0 0 1 3.62.632c.711.691.675 5.885-.079 11.116 0 .026.006.049 0 .074s-.006.041-.006.066v6a1 1 0 0 0 1 1h18.026a4.948 4.948 0 0 0 -1.026 3 5 5 0 1 0 5.76-4.923l1.682-13.761c.393-1.667 1.13-3.722 2.418-4.145 1.859-.615 4.948 2.018 7.432 4.132.507.431 1 .848 1.482 1.244a4.977 4.977 0 1 0 3.172-.451zm-18.346-19.936a8.965 8.965 0 0 1 3.153 8.346l-2.653 21.659-6.885-16.231a1 1 0 0 0 -1.842.782l2.294 5.405-1.115 6.875h-5.988l-1.536-19.2a8.993 8.993 0 0 1 2.956-7.367 8.866 8.866 0 0 1 11.616-.269zm-3.016 26.836h-2.005l.554-3.419zm-26.637-2.372a3 3 0 1 1 -3-3 3 3 0 0 1 3 3zm7.383-10.519a13.442 13.442 0 0 0 2-1.731 1 1 0 0 0 -1.56-1.25 33.578 33.578 0 0 1 -4.195 3.2 31.96 31.96 0 0 0 -4.108 2.827c-.638.5-1.156.916-1.577 1.27-.508-4.97-1.016-11.411 1.84-15.297a10.3 10.3 0 0 1 8.155-4.128 10.013 10.013 0 0 1 6.669 2.523 10.966 10.966 0 0 0 -1.52 6.441l1.523 19.036h-4.412c.475-3.712 1.023-10.236-.744-11.768a5.541 5.541 0 0 0 -2.071-1.123zm2.67 14.891h17.432l1.7 4h-19.132zm24 9a3 3 0 1 1 -3-3 3 3 0 0 1 3 3zm7.413-22.792a11.645 11.645 0 0 1 -3.318-4.279 1 1 0 0 0 -1.851.76 11.875 11.875 0 0 0 .736 1.421 4.028 4.028 0 0 0 -1.744.162 3.807 3.807 0 0 0 -1.129.608l.622-5.09a10.942 10.942 0 0 0 -3.111-9.465 10.078 10.078 0 0 1 2.5-.324 9.774 9.774 0 0 1 7.932 3.834c1.37 1.928 3.106 6.267 3.815 16.02-.413-.342-.839-.7-1.274-1.075-1.056-.896-2.119-1.798-3.178-2.572zm5.587 12.792a3 3 0 1 1 3-3 3 3 0 0 1 -3 3z"/></g><g transform="matrix(0.9375 0 0 0.9375 300 101)" id="L1_14"><path d="m7.015 37h4v3h-4z"/><path d="m11.015 3h-4l-1.809 3.617h7.617z"/><path d="m7.015 40h4v17h-4z" fill="#d6d6d6"/><path d="m7.015 37h4l3.445-18.716a14 14 0 0 0 -.909-10.211l-.728-1.456h-7.617l-.728 1.456a14 14 0 0 0 -.909 10.211z" fill="#fcdc24"/><path d="m5.015 59a2 2 0 0 0 2 2h4a2 2 0 0 0 0-4h-4a2 2 0 0 0 -2 2z"/><path d="m14.312 44.317h17v4h-17z" transform="matrix(0.497 -0.868 0.868 0.497 -28.716 43.086)" fill="#d6d6d6"/><path d="m26.283 35.64h3v4h-3z" transform="matrix(0.497 -0.868 0.868 0.497 -18.688 43.036)"/><path d="m38.973 8.984a14 14 0 0 0 -5.865 8.408l-6.314 17.952 3.47 1.989 12.294-14.527a14 14 0 0 0 4.287-9.312l.092-1.625-6.609-3.787z" fill="#dd100b"/><path d="m43.696 5.843-3.368 2.239 6.609 3.787.229-4.038z"/><path d="m16.851 52.7a2 2 0 0 0 -1.988 3.471l3.471 1.988a2 2 0 0 0 1.988-3.471z"/><path d="m27 53a8 8 0 0 0 8 8v-8z" fill="#6a2c70"/><path d="m35 45a8 8 0 0 0 -8 8h8z" fill="#f44d5d"/><path d="m35 61a8 8 0 0 0 8-8h-8z" fill="#f44d5d"/><path d="m35 45v8h8a8 8 0 0 0 -8-8z" fill="#6a2c70"/><path d="m47.343 47.343a8 8 0 0 0 0 11.314l5.657-5.657z" fill="#5d9e25"/><path d="m53 53 5.657 5.657a8 8 0 0 0 0-11.314z" fill="#5d9e25"/><path d="m58.657 47.343a8 8 0 0 0 -11.314 0l5.657 5.657z" fill="#f07b3f"/><path d="m47.343 58.657a8 8 0 0 0 11.314 0l-5.657-5.657z" fill="#f07b3f"/><g fill="#ffffff"><ellipse cx="12px" cy="18px" rx="2px" ry="0px" transform="matrix(0.055 -0.999 0.999 0.055 -6.425 29.296)"/><ellipse cx="40px" cy="21px" rx="2px" ry="0px" transform="matrix(0.611 -0.791 0.791 0.611 -1.059 40.027)"/></g><path d="m37 58.962a7.957 7.957 0 0 1 -6.538-12.5 7.959 7.959 0 1 0 11.076 11.076 7.917 7.917 0 0 1 -4.538 1.424z" opacity="0.1"/><path d="m53 59a8 8 0 0 1 -7.931-7 8 8 0 1 0 15.862 0 8 8 0 0 1 -7.931 7z" opacity="0.1"/><path d="m6.015 37.091v19.093a2.993 2.993 0 0 0 1 5.816h4a2.993 2.993 0 0 0 1-5.816v-19.093l3.42-18.575a14.951 14.951 0 0 0 -.99-10.89l-2.536-5.073a1 1 0 0 0 -.894-.553h-4a1 1 0 0 0 -.895.553l-2.536 5.073a14.951 14.951 0 0 0 -.984 10.89zm4 .909v1h-2v-1zm-2 3h2v15h-2zm3 19h-4a1 1 0 0 1 0-2h4a1 1 0 0 1 0 2zm-3.382-56h2.767l.809 1.617h-4.384zm-2.26 4.521.452-.9h6.375l.452.9a12.95 12.95 0 0 1 .848 9.479.719.719 0 0 0 -.024.1l-3.294 17.9h-2.335l-3.294-17.9a.892.892 0 0 0 -.025-.1 12.955 12.955 0 0 1 .845-9.479z"/><path d="m48.164 7.888a1 1 0 0 0 -.5-.924l-3.472-1.989a1 1 0 0 0 -1.05.035l-4.723 3.141a14.951 14.951 0 0 0 -6.272 8.957l-6.266 17.818-1.446 2.524-8.046 14.043a2.993 2.993 0 0 0 -2.023 5.543l3.471 1.989a2.978 2.978 0 0 0 1.486.4 2.991 2.991 0 0 0 2.277-4.949l8.043-14.04 1.445-2.521 12.2-14.417a14.953 14.953 0 0 0 4.556-9.941zm-4.43-.87 2.4 1.374-.1 1.8-3.8-2.178zm-15.334 31.553-1.734-.994.5-.868 1.734.991zm-2.728.741 1.734.994-7.454 13.016-1.735-1zm-5.472 17.607a1 1 0 0 1 -1.364.371l-3.476-1.99a1 1 0 0 1 .994-1.736l3.471 1.989a1 1 0 0 1 .375 1.366zm21.67-34.834a1.028 1.028 0 0 0 -.071.076l-11.76 13.89-2.026-1.161 6.038-17.166c.011-.033.021-.066.029-.1a12.962 12.962 0 0 1 5.446-7.808l.841-.559 5.538 3.172-.057 1.009a12.966 12.966 0 0 1 -3.983 8.647z"/><path d="m23 19a1 1 0 0 0 -2 0v1a1 1 0 0 0 2 0z"/><path d="m24 23h1a1 1 0 0 0 0-2h-1a1 1 0 0 0 0 2z"/><path d="m22 26a1 1 0 0 0 1-1v-1a1 1 0 0 0 -2 0v1a1 1 0 0 0 1 1z"/><path d="m20 21h-1a1 1 0 0 0 0 2h1a1 1 0 0 0 0-2z"/><path d="m32 3a1 1 0 0 0 -2 0v1a1 1 0 0 0 2 0z"/><path d="m33 7h1a1 1 0 0 0 0-2h-1a1 1 0 0 0 0 2z"/><path d="m31 10a1 1 0 0 0 1-1v-1a1 1 0 0 0 -2 0v1a1 1 0 0 0 1 1z"/><path d="m29 5h-1a1 1 0 0 0 0 2h1a1 1 0 0 0 0-2z"/><path d="m57 18v1a1 1 0 0 0 2 0v-1a1 1 0 0 0 -2 0z"/><path d="m61 20h-1a1 1 0 0 0 0 2h1a1 1 0 0 0 0-2z"/><path d="m58 22a1 1 0 0 0 -1 1v1a1 1 0 0 0 2 0v-1a1 1 0 0 0 -1-1z"/><path d="m55 22h1a1 1 0 0 0 0-2h-1a1 1 0 0 0 0 2z"/><path d="m43 31h-1a1 1 0 0 0 0 2h1a1 1 0 0 0 0-2z"/><path d="m15.176 33.964a1 1 0 0 0 1 1h.824a1 1 0 0 0 0-2h-.824a1 1 0 0 0 -1 1z"/><path d="m35 44a9 9 0 1 0 9 9 9.01 9.01 0 0 0 -9-9zm6.92 8h-5.92v-5.92a7 7 0 0 1 5.92 5.92zm-7.92-5.92v5.92h-5.92a7 7 0 0 1 5.92-5.92zm-5.92 7.92h5.92v5.92a7 7 0 0 1 -5.92-5.92zm7.92 5.92v-5.92h5.92a7 7 0 0 1 -5.92 5.92z"/><path d="m53 62a9 9 0 1 0 -6.364-2.632 8.975 8.975 0 0 0 6.364 2.632zm-4.186-3.4 4.186-4.186 4.186 4.186a7.005 7.005 0 0 1 -8.372 0zm9.786-1.414-4.186-4.186 4.186-4.186a7 7 0 0 1 0 8.372zm-1.413-9.786-4.187 4.186-4.187-4.186a7.007 7.007 0 0 1 8.374 0zm-9.787 1.414 4.186 4.186-4.186 4.186a7 7 0 0 1 0-8.372z"/><path d="m49 34a1 1 0 0 0 -1 1v1a1 1 0 0 0 2 0v-1a1 1 0 0 0 -1-1z"/><path d="m51 37a1 1 0 0 0 0 2h1a1 1 0 0 0 0-2z"/><path d="m49 42a1 1 0 0 0 1-1v-1a1 1 0 0 0 -2 0v1a1 1 0 0 0 1 1z"/><path d="m47 37h-1a1 1 0 0 0 0 2h1a1 1 0 0 0 0-2z"/></g></defs><g fi:class="KUsePattern"><pattern id="pattern_L1_1" width="350" height="350" patternUnits="userSpaceOnUse"><use xlink:href="#L1_1" x="-350" y="-350"/><use xlink:href="#L1_1" x="0" y="-350"/><use xlink:href="#L1_1" x="350" y="-350"/><use xlink:href="#L1_1" x="-350" y="0"/><use xlink:href="#L1_1" x="0" y="0"/><use xlink:href="#L1_1" x="350" y="0"/><use xlink:href="#L1_1" x="-350" y="350"/><use xlink:href="#L1_1" x="0" y="350"/><use xlink:href="#L1_1" x="350" y="350"/></pattern><rect x="0" y="0" width="100%" height="100%" fill="url(#pattern_L1_1)"/></g><g fi:class="KUsePattern"><pattern id="pattern_L1_4" width="350" height="350" patternUnits="userSpaceOnUse"><use xlink:href="#L1_4" x="-350" y="-350"/><use xlink:href="#L1_4" x="0" y="-350"/><use xlink:href="#L1_4" x="350" y="-350"/><use xlink:href="#L1_4" x="-350" y="0"/><use xlink:href="#L1_4" x="0" y="0"/><use xlink:href="#L1_4" x="350" y="0"/><use xlink:href="#L1_4" x="-350" y="350"/><use xlink:href="#L1_4" x="0" y="350"/><use xlink:href="#L1_4" x="350" y="350"/></pattern><rect x="0" y="0" width="100%" height="100%" fill="url(#pattern_L1_4)"/></g><g fi:class="KUsePattern"><pattern id="pattern_L1_5" width="350" height="350" patternUnits="userSpaceOnUse"><use xlink:href="#L1_5" x="-350" y="-350"/><use xlink:href="#L1_5" x="0" y="-350"/><use xlink:href="#L1_5" x="350" y="-350"/><use xlink:href="#L1_5" x="-350" y="0"/><use xlink:href="#L1_5" x="0" y="0"/><use xlink:href="#L1_5" x="350" y="0"/><use xlink:href="#L1_5" x="-350" y="350"/><use xlink:href="#L1_5" x="0" y="350"/><use xlink:href="#L1_5" x="350" y="350"/></pattern><rect x="0" y="0" width="100%" height="100%" fill="url(#pattern_L1_5)"/></g><g fi:class="KUsePattern"><pattern id="pattern_L1_12" width="350" height="350" patternUnits="userSpaceOnUse"><use xlink:href="#L1_12" x="-350" y="-350"/><use xlink:href="#L1_12" x="0" y="-350"/><use xlink:href="#L1_12" x="350" y="-350"/><use xlink:href="#L1_12" x="-350" y="0"/><use xlink:href="#L1_12" x="0" y="0"/><use xlink:href="#L1_12" x="350" y="0"/><use xlink:href="#L1_12" x="-350" y="350"/><use xlink:href="#L1_12" x="0" y="350"/><use xlink:href="#L1_12" x="350" y="350"/></pattern><rect x="0" y="0" width="100%" height="100%" fill="url(#pattern_L1_12)"/></g><g fi:class="KUsePattern"><pattern id="pattern_L1_13" width="350" height="350" patternUnits="userSpaceOnUse"><use xlink:href="#L1_13" x="-350" y="-350"/><use xlink:href="#L1_13" x="0" y="-350"/><use xlink:href="#L1_13" x="350" y="-350"/><use xlink:href="#L1_13" x="-350" y="0"/><use xlink:href="#L1_13" x="0" y="0"/><use xlink:href="#L1_13" x="350" y="0"/><use xlink:href="#L1_13" x="-350" y="350"/><use xlink:href="#L1_13" x="0" y="350"/><use xlink:href="#L1_13" x="350" y="350"/></pattern><rect x="0" y="0" width="100%" height="100%" fill="url(#pattern_L1_13)"/></g><g fi:class="KUsePattern"><pattern id="pattern_L1_14" width="350" height="350" patternUnits="userSpaceOnUse"><use xlink:href="#L1_14" x="-350" y="-350"/><use xlink:href="#L1_14" x="0" y="-350"/><use xlink:href="#L1_14" x="350" y="-350"/><use xlink:href="#L1_14" x="-350" y="0"/><use xlink:href="#L1_14" x="0" y="0"/><use xlink:href="#L1_14" x="350" y="0"/><use xlink:href="#L1_14" x="-350" y="350"/><use xlink:href="#L1_14" x="0" y="350"/><use xlink:href="#L1_14" x="350" y="350"/></pattern><rect x="0" y="0" width="100%" height="100%" fill="url(#pattern_L1_14)"/></g></svg>